<svg xmlns="http://www.w3.org/2000/svg" width="148.138" height="59.126" viewBox="0 0 148.138 59.126">
  <g id="logo_1" data-name="logo 1" transform="translate(-13686.756 7741)">
    <g id="Group_25624" data-name="Group 25624" transform="translate(13927.406 -8306.673)">
      <g id="Group_25622" data-name="Group 25622">
        <path id="Path_65577" data-name="Path 65577" d="M-182.57,616h8.12c-.57,2.7-1.16,5.41-1.74,8.11-.14.62-.34.76-.97.66-1.76-.3-3.54-.45-5.31-.63-.42-.05-.83-.09-1.24-.14-.48-.07-.6-.22-.52-.7.11-.56.24-1.12.37-1.68C-183.43,619.75-183,617.87-182.57,616Z" fill="#d4c291"/>
        <path id="Path_65578" data-name="Path 65578" d="M-161.7,602.36c.07.03.07.13.08.34C-161.65,602.58-161.67,602.48-161.7,602.36Z" fill="#d4c291"/>
        <path id="Path_65579" data-name="Path 65579" d="M-154.66,598.21h-7.96c-.61-2.67-1.25-5.32-1.93-7.97a12.36,12.36,0,0,0-.95-2.4,1.678,1.678,0,0,0-1.93-.85,1.429,1.429,0,0,0-1.07,1.12c-.14.58-.24,1.16-.36,1.73q-.885,4.185-1.78,8.37h-7.73c.28-1.11.55-2.21.82-3.32q.825-3.345,1.63-6.69c.17-.67.19-.69.87-.69s1.32-.02,1.98,0a2.16,2.16,0,0,0,2.04-1.2c.6-1.06,1.21-2.12,1.83-3.17.65-1.12,1.31-2.23,1.97-3.34a1.7,1.7,0,0,1,.38-.51c.44.53.86,1.02,1.23,1.55q1.785,2.565,3.56,5.13a5.256,5.256,0,0,0,.45.58,1.576,1.576,0,0,0,1.19.53c.92.01,1.83.17,2.74.25.34.03.47.25.53.54.15.61.29,1.23.44,1.84C-156.03,592.54-155.34,595.38-154.66,598.21Z" fill="#d4c291"/>
        <path id="Path_65580" data-name="Path 65580" d="M-148.89,623.71c-.85.12-1.71.24-2.56.35l-4.45.57c-.27.03-.55.03-.81.08-.24.04-.33-.05-.38-.28-.18-.87-.38-1.73-.56-2.61l-1.2-5.82h8.48c.54,2.22,1.07,4.43,1.6,6.65.06.22.12.44.17.66C-148.54,623.6-148.6,623.68-148.89,623.71Z" fill="#d4c291"/>
        <path id="Path_65575" data-name="Path 65575" d="M-164.465,565.679h.43a24.721,24.721,0,0,1,5.5.95,17.062,17.062,0,0,1,3.429,1.487,7.1,7.1,0,0,1,1.691,1.32,2.421,2.421,0,0,1,.176.189c.231.307.229.438.016.765a1.632,1.632,0,0,1-.371.415c-.787.6-1.572,1.208-2.363,1.8a.563.563,0,0,1-.794.037l-.023-.022A10.992,10.992,0,0,0-161,570.769a25.326,25.326,0,0,0-8.26-.54,18.286,18.286,0,0,0-4.868,1.04,8.749,8.749,0,0,0-2.362,1.311c-.123.1-.254.189-.378.287a.38.38,0,0,1-.537-.015l0,0c-.958-.8-1.925-1.595-2.88-2.4-.308-.26-.29-.4-.044-.727a7.5,7.5,0,0,1,2.851-2.17,18.109,18.109,0,0,1,4.963-1.521,31.289,31.289,0,0,1,3.729-.358,3.189,3.189,0,0,0,.691,0h2.164a4.02,4.02,0,0,0,.776,0Z" fill="#d4c291"/>
        <path id="Path_65576" data-name="Path 65576" d="M-151.475,571.733c.211.411.425.8.61,1.2q.852,1.836,1.685,3.68a2.158,2.158,0,0,1-.129,2.026,7.862,7.862,0,0,1-1.441,1.817,18.378,18.378,0,0,1-8.282,4.654,1.266,1.266,0,0,1-1.694-.577c-.012-.024-.023-.047-.033-.071-1.036-1.571-2.093-3.128-3.145-4.688-.369-.547-.235-.468.191-.63a48.331,48.331,0,0,0,5.544-2.468,26.455,26.455,0,0,0,6.537-4.808C-151.594,571.823-151.545,571.791-151.475,571.733Z" fill="#d4c291"/>
        <path id="Path_65573" data-name="Path 65573" d="M-169.636,579.17c-.947,1.8-1.873,3.562-2.81,5.322-.248.466-.431.543-.952.428a17.45,17.45,0,0,1-6.738-2.716c-.44-.321-.9-.615-1.369-.9a6.625,6.625,0,0,1-2.325-2.433c-.216-.373-.4-.761-.589-1.148a1.436,1.436,0,0,1,.019-1.362q1.077-2.084,2.158-4.166c.2-.387.3-.4.648-.1a37.367,37.367,0,0,0,3.588,2.75,37.953,37.953,0,0,0,7,3.685A10.53,10.53,0,0,1-169.636,579.17Z" fill="#d4c291"/>
      </g>
      <g id="Group_25623" data-name="Group 25623">
        <path id="Path_65581" data-name="Path 65581" d="M-181.169,611.551a1.185,1.185,0,0,1-.23.16c.28-1.21.56-2.41.84-3.61a2.656,2.656,0,0,1,.16,2.44A2.648,2.648,0,0,1-181.169,611.551Z" fill="#d4c291"/>
        <path id="Path_65582" data-name="Path 65582" d="M-179.159,602.161h7.85c-.02.1-.04.19-.06.29-.11.52-.23,1.04-.34,1.56h-2.05c-.35.01-.36.01-.36.36v7.8c.01.16-.06.23-.22.23q-.885-.015-1.77,0c-.18,0-.28-.06-.26-.25a3,3,0,0,0,0-.3v-7.37c0-.46.09-.47-.46-.47h-2.59a.811.811,0,0,1-.17-.01C-179.449,603.391-179.3,602.771-179.159,602.161Z" fill="#d4c291"/>
        <path id="Path_65583" data-name="Path 65583" d="M-151,612.38a5.126,5.126,0,0,0-.56.03,1.094,1.094,0,0,1-1.16-.58c-.43-.71-.95-1.36-1.43-2.05a.535.535,0,0,0-.52-.28c-.56.02-1.12,0-1.68,0-.32.01-.33.01-.33.34v2.2c0,.36-.01.37-.35.37h-1.51c-.39-.01-.39-.01-.39-.42v-9.44c0-.38,0-.38.38-.38,1.42,0,2.84-.01,4.27,0a4.686,4.686,0,0,1,.84.07c.19.76.37,1.52.55,2.28a1.5,1.5,0,0,0-.69-.37,2.353,2.353,0,0,0-.46-.1,20.856,20.856,0,0,0-2.37-.07c-.21,0-.27.09-.27.29.01.53,0,1.06,0,1.59v1.55c.01.32.01.33.35.33.51.01,1.03.01,1.55,0a4.249,4.249,0,0,0,1.23-.17,1.65,1.65,0,0,0,1.14-1.08c.19.81.39,1.62.58,2.43a1.617,1.617,0,0,1-.18.1c-.04.02-.08.05-.16.1.2.28.4.55.59.83C-151.38,610.76-151.19,611.57-151,612.38Z" fill="#d4c291"/>
        <path id="Path_65584" data-name="Path 65584" d="M-190.849,602.4v9.78c0,.14-.05.22-.2.22h-1.12v-10.23h1.09C-190.9,602.171-190.849,602.241-190.849,602.4Z" fill="#fff"/>
        <path id="Path_65585" data-name="Path 65585" d="M-180.559,608.1a2.656,2.656,0,0,1,.16,2.44,2.648,2.648,0,0,1-.77,1.01,1.185,1.185,0,0,1-.23.16,3.831,3.831,0,0,1-1.5.67,8.157,8.157,0,0,1-5.26-.6c-.65-.3-.64-.32-.33-.97l.55-1.15a6.025,6.025,0,0,0,1.77.81,6.022,6.022,0,0,0,2.6.15,1.867,1.867,0,0,0,.72-.28.887.887,0,0,0,.29-1.21.833.833,0,0,0-.28-.28,2.623,2.623,0,0,0-.94-.4c-.72-.17-1.43-.34-2.14-.51a5.731,5.731,0,0,1-1.05-.38,2.72,2.72,0,0,1-1.26-3.63,2.791,2.791,0,0,1,.49-.69,4.092,4.092,0,0,1,2.31-1.14,7.862,7.862,0,0,1,3.91.31,5.015,5.015,0,0,1,.75.33c.13.07.2.15.13.31-.23.51-.45,1.03-.7,1.58a5.068,5.068,0,0,0-1.85-.7,4.884,4.884,0,0,0-2.05.04,1.557,1.557,0,0,0-.62.3.932.932,0,0,0-.18,1.29,1.014,1.014,0,0,0,.27.24,3.221,3.221,0,0,0,1.08.41c.61.15,1.23.29,1.85.43a6.512,6.512,0,0,1,1.05.36A2.647,2.647,0,0,1-180.559,608.1Z" fill="#fff"/>
        <path id="Path_65586" data-name="Path 65586" d="M-170.749,602.511v1.16c0,.33-.01.34-.33.34h-2.68c-.35.01-.36.01-.36.36v7.8c.01.16-.06.23-.22.23q-.885-.015-1.77,0c-.18,0-.28-.06-.26-.25a3,3,0,0,0,0-.3v-7.37c0-.46.09-.47-.46-.47h-2.59a.811.811,0,0,1-.17-.01h-.01c-.12-.01-.13-.08-.13-.3v-1.21c0-.32,0-.33.33-.33h8.29C-170.759,602.161-170.759,602.161-170.749,602.511Z" fill="#fff"/>
        <path id="Path_65587" data-name="Path 65587" d="M-161.209,610.941c0,.39-.01.78,0,1.17.01.23-.08.31-.3.29a2.251,2.251,0,0,0-.26,0h-6.86a3,3,0,0,0-.3,0c-.17.01-.22-.08-.22-.24v-.3l.01-4.61v-4.7c0-.38,0-.38.36-.38h6.99a.7.7,0,0,1,.3.03v.01c.07.03.07.13.08.34v.03c0,.37-.01.75,0,1.13,0,.2-.05.29-.27.28-.37-.01-.75,0-1.12,0h-3.75c-.34,0-.35,0-.35.32v1.68c0,.33.01.34.33.34h3.8c.74,0,.74,0,.74.71,0,.26-.01.52,0,.78.01.2-.07.28-.28.27-.57-.01-1.15,0-1.72,0h-2.55c-.31,0-.31.01-.32.3v1.86c0,.33.01.34.37.34h4.96C-161.209,610.591-161.209,610.591-161.209,610.941Z" fill="#fff"/>
        <path id="Path_65588" data-name="Path 65588" d="M-151.01,610.76l-.57-.81c-.19-.28-.39-.55-.59-.83.08-.05.12-.08.16-.1a1.617,1.617,0,0,0,.18-.1,3.291,3.291,0,0,0,1.77-3.21,3.28,3.28,0,0,0-1.97-3.05,4.984,4.984,0,0,0-1.41-.42,4.686,4.686,0,0,0-.84-.07c-1.43-.01-2.85,0-4.27,0-.38,0-.38,0-.38.38v9.44c0,.41,0,.41.39.42h1.51c.34,0,.35-.01.35-.37v-2.2c0-.33.01-.33.33-.34.56,0,1.12.02,1.68,0a.535.535,0,0,1,.52.28c.48.69,1,1.34,1.43,2.05a1.094,1.094,0,0,0,1.16.58,5.126,5.126,0,0,1,.56-.03c.36,0,.74.02,1.14.02Zm-2.54-3.19a4.249,4.249,0,0,1-1.23.17c-.52.01-1.04.01-1.55,0-.34,0-.34-.01-.35-.33v-1.55c0-.53.01-1.06,0-1.59,0-.2.06-.29.27-.29a20.856,20.856,0,0,1,2.37.07,2.353,2.353,0,0,1,.46.1,1.5,1.5,0,0,1,.69.37,1.6,1.6,0,0,1,.57,1.33,1.713,1.713,0,0,1-.09.64A1.65,1.65,0,0,1-153.55,607.57Z" fill="#fff"/>
        <path id="Path_65589" data-name="Path 65589" d="M-140.2,610.551a2.545,2.545,0,0,1-.69.93,3.894,3.894,0,0,1-1.83.9,8.169,8.169,0,0,1-5.22-.6c-.66-.3-.65-.32-.35-.96l.57-1.16a6.208,6.208,0,0,0,3.71,1.04,3.589,3.589,0,0,0,.98-.16,1.506,1.506,0,0,0,.52-.3.868.868,0,0,0,.08-1.22.572.572,0,0,0-.11-.11,2.4,2.4,0,0,0-1.02-.45c-.62-.16-1.26-.29-1.88-.44a7.128,7.128,0,0,1-1.3-.45,2.7,2.7,0,0,1-1.28-3.62,2.808,2.808,0,0,1,.48-.7,3.928,3.928,0,0,1,1.85-1.04,7.585,7.585,0,0,1,4.66.31c.71.27.7.29.4.99-.16.35-.31.71-.46,1.04-.14.07-.21-.03-.3-.07a5.377,5.377,0,0,0-3.29-.59,1.914,1.914,0,0,0-.85.29.938.938,0,0,0-.37,1.27.941.941,0,0,0,.4.39,4.775,4.775,0,0,0,1.38.46,18.063,18.063,0,0,1,2.05.51c.17.07.35.13.52.2A2.685,2.685,0,0,1-140.2,610.551Z" fill="#fff"/>
        <path id="Path_65590" data-name="Path 65590" d="M-136.789,602.111v4.45c-.03.07-.05.14-.08.21-.05.13-.11.22-.28.22-.4-.01-.8-.01-1.26-.01.17-.65.31-1.25.48-1.84.06-.24.06-.38-.18-.53a1.409,1.409,0,0,1-.45-1.76,1.415,1.415,0,0,1,1.66-.77Z" fill="#fff"/>
        <g id="Group_25620" data-name="Group 25620">
          <g id="Group_25619" data-name="Group 25619">
            <path id="Path_26" data-name="Path 26" d="M-231.54,605.97a1.108,1.108,0,0,1-.13-.05c.02-.14.12-.17.18-.21a3.077,3.077,0,0,0,.75-4.28,3.16,3.16,0,0,0-1.24-1.02,6.365,6.365,0,0,0-2.51-.51h-5.78c-.38,0-.38.01-.38.38v11.9c-.01.16.07.23.23.22h5.78a11.266,11.266,0,0,0,1.42-.07,5.528,5.528,0,0,0,2.1-.61,2.822,2.822,0,0,0,1.46-1.78A3.21,3.21,0,0,0-231.54,605.97Zm-6.79-3.98c0-.21.06-.28.27-.27.6.01,1.21,0,1.94,0a11.8,11.8,0,0,1,2.06.09,2.228,2.228,0,0,1,.57.18,1.474,1.474,0,0,1,.95,1.45,1.487,1.487,0,0,1-.96,1.45,3.5,3.5,0,0,1-1.39.26c-1.05.02-2.1,0-3.15.02-.22,0-.3-.07-.3-.3C-238.33,603.91-238.32,602.95-238.33,601.99Zm5.48,8.29a3.4,3.4,0,0,1-1.09.25c-.68.05-1.37.03-1.95.04h-2.14c-.21,0-.31-.05-.3-.29q.015-1.53,0-3.06c0-.18.06-.26.25-.26,1.4.02,2.81-.03,4.22.04a2.943,2.943,0,0,1,1,.25,1.523,1.523,0,0,1,.97,1.53A1.52,1.52,0,0,1-232.85,610.28Z" fill="#d4c291"/>
            <path id="Path_27" data-name="Path 27" d="M-117.348,606.135v6.031c0,.139-.056.221-.2.221h-1.94a.166.166,0,0,1-.181-.151.2.2,0,0,1,0-.042v-4.782c-.007-.355-.007-.361-.356-.362h-5.692c-.427,0-.43,0-.431.42v4.7c0,.138-.052.223-.2.223h-1.94a.168.168,0,0,1-.183-.149.2.2,0,0,1,0-.042V600.4a1.928,1.928,0,0,0,0-.215c-.028-.242.1-.289.312-.285.56.008,1.121,0,1.682,0,.321,0,.328.009.329.346v3.533c0,.345.006.69,0,1.034,0,.185.077.263.255.258h5.735c.072,0,.144-.006.215,0,.2.019.285-.067.278-.273-.011-.316,0-.632,0-.948v-3.533c0-.417,0-.418.431-.419h1.509c.375,0,.38.006.38.382v5.042Z" fill="#d4c291"/>
            <path id="Path_28" data-name="Path 28" d="M-93.94,607.23c-.09-.05-.2-.05-.29-.19a2.444,2.444,0,0,0,.95-1.04,2.467,2.467,0,0,0-1.1-3.32.611.611,0,0,0-.12-.05,4.973,4.973,0,0,0-2.22-.46c-1.59-.01-3.19,0-4.78,0-.44,0-.42-.04-.42.42v9.6c0,.15.08.2.21.2h4.31c.56.01,1.12-.01,1.68-.05a5.27,5.27,0,0,0,1.7-.44,2.379,2.379,0,0,0,1.5-2.27A2.427,2.427,0,0,0-93.94,607.23Zm-5.73-3.09c0-.31.01-.32.31-.32.39-.01.77,0,1.22,0a10.486,10.486,0,0,1,1.58.06,2.182,2.182,0,0,1,.61.2,1.13,1.13,0,0,1,.63,1.09,1.1,1.1,0,0,1-.66,1.03,3.037,3.037,0,0,1-1.3.24c-.69.02-1.38.01-2.07,0-.31,0-.31-.01-.32-.32C-99.68,605.46-99.67,604.8-99.67,604.14Zm4.85,5.44a1.069,1.069,0,0,1-.72.93,2.277,2.277,0,0,1-.93.19h-1.42v.01H-99.4c-.2,0-.28-.06-.28-.27.01-.7.01-1.4,0-2.11,0-.19.05-.29.27-.29,1.08.03,2.16-.05,3.23.07a2.353,2.353,0,0,1,.46.1A1.155,1.155,0,0,1-94.82,609.58Z" fill="#d4c291"/>
            <path id="Path_29" data-name="Path 29" d="M-151.01,610.76l-.57-.81c-.19-.28-.39-.55-.59-.83.08-.05.12-.08.16-.1a1.617,1.617,0,0,0,.18-.1,3.291,3.291,0,0,0,1.77-3.21,3.28,3.28,0,0,0-1.97-3.05,4.984,4.984,0,0,0-1.41-.42,4.686,4.686,0,0,0-.84-.07c-1.43-.01-2.85,0-4.27,0-.38,0-.38,0-.38.38v9.44c0,.41,0,.41.39.42h1.51c.34,0,.35-.01.35-.37v-2.2c0-.33.01-.33.33-.34.56,0,1.12.02,1.68,0a.535.535,0,0,1,.52.28c.48.69,1,1.34,1.43,2.05a1.094,1.094,0,0,0,1.16.58,5.126,5.126,0,0,1,.56-.03c.36,0,.74.02,1.14.02Zm-2.54-3.19a4.249,4.249,0,0,1-1.23.17c-.52.01-1.04.01-1.55,0-.34,0-.34-.01-.35-.33v-1.55c0-.53.01-1.06,0-1.59,0-.2.06-.29.27-.29a20.856,20.856,0,0,1,2.37.07,2.353,2.353,0,0,1,.46.1,1.5,1.5,0,0,1,.69.37,1.6,1.6,0,0,1,.57,1.33,1.713,1.713,0,0,1-.09.64A1.65,1.65,0,0,1-153.55,607.57Z" fill="#d4c291"/>
            <path id="Path_30" data-name="Path 30" d="M-209.13,609.11l.28-.15a3.318,3.318,0,0,0,1.83-3.43,3.263,3.263,0,0,0-2.2-2.97,5.449,5.449,0,0,0-2.11-.39h-4.1c-.51,0-.46-.05-.46.47v9.4c.01.36.01.36.35.36.52.01,1.04.01,1.55,0,.35,0,.35,0,.35-.36,0-.75.01-1.5,0-2.24,0-.22.07-.3.3-.3q.84.015,1.68,0a.552.552,0,0,1,.56.28c.52.75,1.06,1.47,1.56,2.23a.761.761,0,0,0,.77.4c.52-.03,1.04,0,1.55-.01a.526.526,0,0,0,.37-.06Zm-1.5-1.5a4.375,4.375,0,0,1-1.02.12c-.56.02-1.12,0-1.69.01-.22,0-.3-.08-.3-.3.02-.53,0-1.06,0-1.59v-1.59c0-.17.03-.28.24-.27a19.4,19.4,0,0,1,2.41.06,2.577,2.577,0,0,1,.38.08,1.666,1.666,0,0,1,1.33,1.72A1.7,1.7,0,0,1-210.63,607.61Z" fill="#d4c291"/>
            <path id="Path_31" data-name="Path 31" d="M-197.74,609.11l.3-.16a3.306,3.306,0,0,0,1.8-3.4,3.256,3.256,0,0,0-2.14-2.97,5.448,5.448,0,0,0-2.15-.41c-1.05-.01-2.1,0-3.15,0h-1.12c-.3,0-.3.01-.3.32v9.61c0,.22.07.31.3.3.51-.01,1.03,0,1.55,0,.4,0,.41,0,.41-.39v-2.2c0-.3.01-.31.31-.31.56,0,1.12.01,1.68-.01a.541.541,0,0,1,.53.28c.55.79,1.12,1.56,1.67,2.36a.552.552,0,0,0,.52.28c.59-.02,1.18,0,1.77-.01.09,0,.2.05.28-.09Zm-1.43-1.52a3.813,3.813,0,0,1-1.06.14c-.58.02-1.15,0-1.73.02-.24,0-.29-.1-.28-.32v-3.1c0-.33,0-.35.32-.34a18.138,18.138,0,0,1,2.33.06,3.145,3.145,0,0,1,.42.09,1.663,1.663,0,0,1,1.28,1.72A1.7,1.7,0,0,1-199.17,607.59Z" fill="#d4c291"/>
            <path id="Path_65591" data-name="Path 65591" d="M-161.209,610.941c0,.39-.01.78,0,1.17.01.23-.08.31-.3.29a2.251,2.251,0,0,0-.26,0h-6.86a3,3,0,0,0-.3,0c-.17.01-.22-.08-.22-.24v-.3l.01-4.61v-4.7c0-.38,0-.38.36-.38h6.99a.7.7,0,0,1,.3.03v.01c.07.03.07.13.08.34v.03c0,.37-.01.75,0,1.13,0,.2-.05.29-.27.28-.37-.01-.75,0-1.12,0h-3.75c-.34,0-.35,0-.35.32v1.68c0,.33.01.34.33.34h3.8c.74,0,.74,0,.74.71,0,.26-.01.52,0,.78.01.2-.07.28-.28.27-.57-.01-1.15,0-1.72,0h-2.55c-.31,0-.31.01-.32.3v1.86c0,.33.01.34.37.34h4.96C-161.209,610.591-161.209,610.591-161.209,610.941Z" fill="#d4c291"/>
            <path id="Path_33" data-name="Path 33" d="M-104.915,605.563v2.63a4.963,4.963,0,0,1-.258,1.608,3.7,3.7,0,0,1-2.419,2.451,5.914,5.914,0,0,1-3.811.02,3.824,3.824,0,0,1-2.674-3.047,5.208,5.208,0,0,1-.1-1.114v-5.732c0-.138.048-.213.2-.212h1.855c.153,0,.2.077.2.214v5.431a3.938,3.938,0,0,0,.193,1.4,2.036,2.036,0,0,0,1.882,1.406,3.374,3.374,0,0,0,.988-.035,2.111,2.111,0,0,0,1.693-1.934,9.582,9.582,0,0,0,.073-1.16c-.007-1.6,0-3.19,0-4.785v-.345c0-.115.044-.191.174-.191h1.855a.143.143,0,0,1,.156.161c0,.1,0,.2,0,.3Q-104.916,604.1-104.915,605.563Z" fill="#d4c291"/>
            <path id="Path_34" data-name="Path 34" d="M-217.47,612.05l-1.8-3.96c-.84-1.86-1.68-3.71-2.51-5.57a.484.484,0,0,0-.54-.36,12,12,0,0,1-1.47,0,.515.515,0,0,0-.57.37q-2.115,4.695-4.24,9.37a.818.818,0,0,0-.15.5c.62,0,1.23-.01,1.83,0a.377.377,0,0,0,.42-.27c.23-.56.48-1.1.71-1.66a.407.407,0,0,1,.45-.3q2.265.015,4.53,0a.38.38,0,0,1,.43.3c.23.56.48,1.1.7,1.66a.361.361,0,0,0,.39.26c.55-.01,1.09,0,1.64-.01.09,0,.2.05.27-.06A.618.618,0,0,0-217.47,612.05Zm-7.42-3.6c.6-1.39,1.18-2.75,1.77-4.12h.1c.58,1.37,1.17,2.73,1.77,4.12Z" fill="#d4c291"/>
            <path id="Path_65592" data-name="Path 65592" d="M-180.4,610.541a2.648,2.648,0,0,1-.77,1.01,1.185,1.185,0,0,1-.23.16,3.831,3.831,0,0,1-1.5.67,8.157,8.157,0,0,1-5.26-.6c-.65-.3-.64-.32-.33-.97l.55-1.15a6.025,6.025,0,0,0,1.77.81,6.022,6.022,0,0,0,2.6.15,1.867,1.867,0,0,0,.72-.28.887.887,0,0,0,.29-1.21.833.833,0,0,0-.28-.28,2.623,2.623,0,0,0-.94-.4c-.72-.17-1.43-.34-2.14-.51a5.731,5.731,0,0,1-1.05-.38,2.72,2.72,0,0,1-1.26-3.63,2.791,2.791,0,0,1,.49-.69,4.092,4.092,0,0,1,2.31-1.14,7.862,7.862,0,0,1,3.91.31,5.015,5.015,0,0,1,.75.33c.13.07.2.15.13.31-.23.51-.45,1.03-.7,1.58a5.068,5.068,0,0,0-1.85-.7,4.884,4.884,0,0,0-2.05.04,1.557,1.557,0,0,0-.62.3.932.932,0,0,0-.18,1.29,1.014,1.014,0,0,0,.27.24,3.221,3.221,0,0,0,1.08.41c.61.15,1.23.29,1.85.43a6.512,6.512,0,0,1,1.05.36,2.647,2.647,0,0,1,1.23,1.1A2.656,2.656,0,0,1-180.4,610.541Z" fill="#d4c291"/>
            <path id="Path_65593" data-name="Path 65593" d="M-140.2,610.551a2.545,2.545,0,0,1-.69.93,3.894,3.894,0,0,1-1.83.9,8.169,8.169,0,0,1-5.22-.6c-.66-.3-.65-.32-.35-.96l.57-1.16a6.208,6.208,0,0,0,3.71,1.04,3.589,3.589,0,0,0,.98-.16,1.506,1.506,0,0,0,.52-.3.868.868,0,0,0,.08-1.22.572.572,0,0,0-.11-.11,2.4,2.4,0,0,0-1.02-.45c-.62-.16-1.26-.29-1.88-.44a7.128,7.128,0,0,1-1.3-.45,2.7,2.7,0,0,1-1.28-3.62,2.808,2.808,0,0,1,.48-.7,3.928,3.928,0,0,1,1.85-1.04,7.585,7.585,0,0,1,4.66.31c.71.27.7.29.4.99-.16.35-.31.71-.46,1.04-.14.07-.21-.03-.3-.07a5.377,5.377,0,0,0-3.29-.59,1.914,1.914,0,0,0-.85.29.938.938,0,0,0-.37,1.27.941.941,0,0,0,.4.39,4.775,4.775,0,0,0,1.38.46,18.063,18.063,0,0,1,2.05.51c.17.07.35.13.52.2A2.685,2.685,0,0,1-140.2,610.551Z" fill="#d4c291"/>
            <path id="Path_65594" data-name="Path 65594" d="M-170.749,602.511v1.16c0,.33-.01.34-.33.34h-2.68c-.35.01-.36.01-.36.36v7.8c.01.16-.06.23-.22.23q-.885-.015-1.77,0c-.18,0-.28-.06-.26-.25a3,3,0,0,0,0-.3v-7.37c0-.46.09-.47-.46-.47h-2.59a.811.811,0,0,1-.17-.01h-.01c-.12-.01-.13-.08-.13-.3v-1.21c0-.32,0-.33.33-.33h8.29C-170.759,602.161-170.759,602.161-170.749,602.511Z" fill="#d4c291"/>
            <path id="Path_65595" data-name="Path 65595" d="M-190.849,602.4v9.78c0,.14-.05.22-.2.22h-1.86c-.14,0-.2-.08-.2-.22V602.4c-.01-.16.05-.23.22-.23h1.81C-190.9,602.171-190.849,602.241-190.849,602.4Z" fill="#d4c291"/>
            <path id="Path_65596" data-name="Path 65596" d="M-135.8,603.391a2.21,2.21,0,0,1-.12.89c-.28.77-.58,1.52-.87,2.28-.03.07-.05.14-.08.21-.05.13-.11.22-.28.22-.4-.01-.8-.01-1.26-.01.17-.65.31-1.25.48-1.84.06-.24.06-.38-.18-.53a1.409,1.409,0,0,1-.45-1.76,1.415,1.415,0,0,1,1.66-.77l.11.03A1.359,1.359,0,0,1-135.8,603.391Z" fill="#d4c291"/>
          </g>
        </g>
      </g>
    </g>
  </g>
</svg>
