<svg xmlns="http://www.w3.org/2000/svg" width="14.288" height="23.47" viewBox="0 0 14.288 23.47">
  <g id="b_fav_icon" data-name="b fav icon" transform="translate(-13731.489 7664.972)">
    <path id="Path_22" data-name="Path 22" d="M-823.5,749.7c.176.207.342.4.489.613q.707,1.019,1.414,2.039a2.15,2.15,0,0,0,.178.229.623.623,0,0,0,.471.209c.366,0,.727.068,1.09.1.131.011.183.1.21.213.057.244.112.488.171.732q.8,3.288,1.591,6.577.784,3.247,1.564,6.5c.021.089.048.176.066.265.023.113,0,.144-.115.16q-.508.072-1.017.138-.882.114-1.765.225c-.107.014-.217.013-.323.031s-.131-.018-.149-.109c-.07-.346-.149-.69-.221-1.036-.5-2.4-.988-4.8-1.494-7.194q-.567-2.684-1.245-5.341a4.8,4.8,0,0,0-.378-.951.667.667,0,0,0-.766-.339.573.573,0,0,0-.425.448c-.056.227-.1.457-.144.686-.359,1.688-.713,3.377-1.079,5.064q-.566,2.6-1.116,5.213c-.233,1.109-.474,2.217-.713,3.325-.053.247-.134.3-.385.26-.7-.116-1.4-.178-2.106-.251-.164-.017-.329-.033-.493-.055-.19-.026-.238-.087-.2-.275.042-.224.093-.446.145-.668.488-2.115.971-4.23,1.469-6.342.335-1.425.692-2.845,1.038-4.267l.647-2.656c.065-.265.076-.274.342-.274s.525-.005.788,0a.85.85,0,0,0,.809-.474q.36-.632.725-1.26c.258-.443.52-.885.782-1.326A.662.662,0,0,1-823.5,749.7Z" transform="translate(14562.03 -8409.267)" fill="#d4c291"/>
    <path id="Path_23" data-name="Path 23" d="M-797.779,653.926h.171a9.832,9.832,0,0,1,2.185.377,6.779,6.779,0,0,1,1.361.59,2.827,2.827,0,0,1,.671.524.973.973,0,0,1,.07.075c.092.122.091.174.006.3a.648.648,0,0,1-.147.165c-.312.239-.624.479-.938.716a.223.223,0,0,1-.324.006,4.366,4.366,0,0,0-1.678-.735,10.06,10.06,0,0,0-3.278-.214,7.272,7.272,0,0,0-1.932.413,3.461,3.461,0,0,0-.938.52c-.049.039-.1.075-.15.114a.151.151,0,0,1-.214-.007c-.38-.318-.764-.633-1.143-.953-.122-.1-.115-.158-.017-.288a2.978,2.978,0,0,1,1.132-.861,7.193,7.193,0,0,1,1.97-.6,12.426,12.426,0,0,1,1.48-.142,1.264,1.264,0,0,0,.274,0h.86a1.613,1.613,0,0,0,.308,0Z" transform="translate(14537.252 -8318.896)" fill="#d4c291"/>
    <path id="Path_24" data-name="Path 24" d="M-683.856,696.522c.084.163.169.316.242.474q.338.728.669,1.461a.857.857,0,0,1-.051.8,3.125,3.125,0,0,1-.572.721,7.291,7.291,0,0,1-3.287,1.847.5.5,0,0,1-.686-.257c-.411-.624-.831-1.242-1.248-1.861-.146-.217-.093-.186.076-.25a19.137,19.137,0,0,0,2.2-.979,10.5,10.5,0,0,0,2.595-1.908C-683.9,696.558-683.885,696.545-683.856,696.522Z" transform="translate(14428.485 -8359.089)" fill="#d4c291"/>
    <path id="Path_25" data-name="Path 25" d="M-826.813,700.471c-.376.713-.744,1.414-1.116,2.112-.1.185-.171.216-.378.17a6.926,6.926,0,0,1-2.673-1.08c-.175-.128-.358-.244-.543-.356a2.629,2.629,0,0,1-.923-.966c-.085-.148-.159-.3-.234-.456a.571.571,0,0,1,.008-.541q.428-.827.856-1.653c.08-.154.119-.159.257-.039a14.8,14.8,0,0,0,1.424,1.091,15.052,15.052,0,0,0,2.777,1.463A4.2,4.2,0,0,1-826.813,700.471Z" transform="translate(14564.232 -8360.087)" fill="#d4c291"/>
  </g>
</svg>
